# xmcd
#
# Track frame offsets: 
#        150
#        30313
#        52459
#        71170
#        90043
#        138862
#        157572
#        176609
#        206937
#
# Disc length: 3010 seconds
#
# Revision: 0
# Processed by: cddbd v1.5.2PL0 Copyright (c) Steve Scherf et al.
# Submitted via: ExactAudioCopy v1.0b3
#
DISCID=710bc009
DTITLE=Kasa-Lord - Slow Boat
DYEAR=2008
DGENRE=New Age
TTITLE0=Water Celebration
TTITLE1=A Poem in a Pool
TTITLE2=Down By the Riverside
TTITLE3=Sailing in a Cave
TTITLE4=Ocean Motions
TTITLE5=Singing in the Rain (Of Joy)
TTITLE6=Beautiful Rains
TTITLE7=A Lake I Like
TTITLE8=Water Echoes
EXTD=
EXTT0=
EXTT1=
EXTT2=
EXTT3=
EXTT4=
EXTT5=
EXTT6=
EXTT7=
EXTT8=
PLAYORDER=
